<mxfile host="app.diagrams.net" modified="2023-09-16T14:31:21.291Z" agent="Mozilla/5.0 (Macintosh; Intel Mac OS X 10_15_7) AppleWebKit/537.36 (KHTML, like Gecko) Chrome/116.0.0.0 Safari/537.36" etag="sr2pL10eG_2-ovCm0qNQ" version="21.6.5" type="github">
  <diagram name="Page-1" id="Y0sjwqhJ_iF4YeSlpzyH">
    <mxGraphModel dx="1666" dy="1017" grid="0" gridSize="10" guides="1" tooltips="1" connect="1" arrows="1" fold="1" page="0" pageScale="1" pageWidth="827" pageHeight="1169" math="0" shadow="0">
      <root>
        <mxCell id="0" />
        <mxCell id="1" parent="0" />
        <mxCell id="_EimbIQ9RIm8K2yoUGh0-2" value="Private subnet&lt;br&gt;10.0.3.0/24" style="points=[[0,0],[0.25,0],[0.5,0],[0.75,0],[1,0],[1,0.25],[1,0.5],[1,0.75],[1,1],[0.75,1],[0.5,1],[0.25,1],[0,1],[0,0.75],[0,0.5],[0,0.25]];outlineConnect=0;gradientColor=none;html=1;whiteSpace=wrap;fontSize=12;fontStyle=0;container=1;pointerEvents=0;collapsible=0;recursiveResize=0;shape=mxgraph.aws4.group;grIcon=mxgraph.aws4.group_security_group;grStroke=0;strokeColor=#147EBA;fillColor=#E6F2F8;verticalAlign=top;align=left;spacingLeft=30;fontColor=#147EBA;dashed=0;" parent="1" vertex="1">
          <mxGeometry x="-312" y="131" width="162.5" height="150" as="geometry" />
        </mxCell>
        <mxCell id="_EimbIQ9RIm8K2yoUGh0-5" value="MySql DB" style="outlineConnect=0;dashed=0;verticalLabelPosition=bottom;verticalAlign=top;align=center;html=1;shape=mxgraph.aws3.ec2;fillColor=#F58534;gradientColor=none;" parent="_EimbIQ9RIm8K2yoUGh0-2" vertex="1">
          <mxGeometry x="17" y="50" width="31" height="43" as="geometry" />
        </mxCell>
        <mxCell id="_EimbIQ9RIm8K2yoUGh0-8" value="App Instance" style="outlineConnect=0;dashed=0;verticalLabelPosition=bottom;verticalAlign=top;align=center;html=1;shape=mxgraph.aws3.ec2;fillColor=#F58534;gradientColor=none;" parent="_EimbIQ9RIm8K2yoUGh0-2" vertex="1">
          <mxGeometry x="91" y="50" width="29" height="43" as="geometry" />
        </mxCell>
        <mxCell id="Eob51S2Rj65dCeD4cubW-5" value="Public subnet&lt;br&gt;10.0.1.0/24" style="points=[[0,0],[0.25,0],[0.5,0],[0.75,0],[1,0],[1,0.25],[1,0.5],[1,0.75],[1,1],[0.75,1],[0.5,1],[0.25,1],[0,1],[0,0.75],[0,0.5],[0,0.25]];outlineConnect=0;gradientColor=none;html=1;whiteSpace=wrap;fontSize=12;fontStyle=0;container=1;pointerEvents=0;collapsible=0;recursiveResize=0;shape=mxgraph.aws4.group;grIcon=mxgraph.aws4.group_security_group;grStroke=0;strokeColor=#248814;fillColor=#E9F3E6;verticalAlign=top;align=left;spacingLeft=30;fontColor=#248814;dashed=0;" parent="1" vertex="1">
          <mxGeometry x="-290" y="-49" width="120.5" height="130" as="geometry" />
        </mxCell>
        <mxCell id="Eob51S2Rj65dCeD4cubW-6" value="Web Instance 1" style="outlineConnect=0;dashed=0;verticalLabelPosition=bottom;verticalAlign=top;align=center;html=1;shape=mxgraph.aws3.ec2;fillColor=#F58534;gradientColor=none;" parent="Eob51S2Rj65dCeD4cubW-5" vertex="1">
          <mxGeometry x="37" y="49" width="29" height="43" as="geometry" />
        </mxCell>
        <mxCell id="Eob51S2Rj65dCeD4cubW-9" value="Public subnet&lt;br&gt;10.0.2.0/24" style="points=[[0,0],[0.25,0],[0.5,0],[0.75,0],[1,0],[1,0.25],[1,0.5],[1,0.75],[1,1],[0.75,1],[0.5,1],[0.25,1],[0,1],[0,0.75],[0,0.5],[0,0.25]];outlineConnect=0;gradientColor=none;html=1;whiteSpace=wrap;fontSize=12;fontStyle=0;container=1;pointerEvents=0;collapsible=0;recursiveResize=0;shape=mxgraph.aws4.group;grIcon=mxgraph.aws4.group_security_group;grStroke=0;strokeColor=#248814;fillColor=#E9F3E6;verticalAlign=top;align=left;spacingLeft=30;fontColor=#248814;dashed=0;" parent="1" vertex="1">
          <mxGeometry x="-20" y="-49" width="111" height="130" as="geometry" />
        </mxCell>
        <mxCell id="Eob51S2Rj65dCeD4cubW-10" value="Web Instance 1" style="outlineConnect=0;dashed=0;verticalLabelPosition=bottom;verticalAlign=top;align=center;html=1;shape=mxgraph.aws3.ec2;fillColor=#F58534;gradientColor=none;" parent="Eob51S2Rj65dCeD4cubW-9" vertex="1">
          <mxGeometry x="37" y="49" width="29" height="43" as="geometry" />
        </mxCell>
        <mxCell id="Eob51S2Rj65dCeD4cubW-13" value="Availability Zone&lt;br&gt;ap-southeast-1a" style="fillColor=none;strokeColor=#147EBA;dashed=1;verticalAlign=top;fontStyle=0;fontColor=#147EBA;whiteSpace=wrap;html=1;" parent="1" vertex="1">
          <mxGeometry x="-326" y="-90" width="195" height="396" as="geometry" />
        </mxCell>
        <mxCell id="Eob51S2Rj65dCeD4cubW-14" value="Availability Zone&lt;br&gt;ap-southeast-1b" style="fillColor=none;strokeColor=#147EBA;dashed=1;verticalAlign=top;fontStyle=0;fontColor=#147EBA;whiteSpace=wrap;html=1;" parent="1" vertex="1">
          <mxGeometry x="-64" y="-90" width="187" height="192" as="geometry" />
        </mxCell>
        <mxCell id="Eob51S2Rj65dCeD4cubW-15" value="VPC 10.0.0.0/24" style="sketch=0;outlineConnect=0;gradientColor=none;html=1;whiteSpace=wrap;fontSize=12;fontStyle=0;shape=mxgraph.aws4.group;grIcon=mxgraph.aws4.group_vpc;strokeColor=#00CC00;fillColor=none;verticalAlign=top;align=left;spacingLeft=30;fontColor=#879196;dashed=0;" parent="1" vertex="1">
          <mxGeometry x="-358" y="-144" width="503" height="465" as="geometry" />
        </mxCell>
        <mxCell id="Eob51S2Rj65dCeD4cubW-16" value="App&amp;nbsp; LB" style="outlineConnect=0;dashed=0;verticalLabelPosition=bottom;verticalAlign=top;align=center;html=1;shape=mxgraph.aws3.application_load_balancer;fillColor=#F58534;gradientColor=none;" parent="1" vertex="1">
          <mxGeometry x="-124" y="-224" width="40" height="41" as="geometry" />
        </mxCell>
        <mxCell id="Eob51S2Rj65dCeD4cubW-23" value="Internet&lt;br&gt;Gateway" style="outlineConnect=0;dashed=0;verticalLabelPosition=bottom;verticalAlign=top;align=center;html=1;shape=mxgraph.aws3.internet_gateway;fillColor=#F58534;gradientColor=none;" parent="1" vertex="1">
          <mxGeometry x="-125" y="-140" width="41" height="41" as="geometry" />
        </mxCell>
        <mxCell id="Eob51S2Rj65dCeD4cubW-24" value="" style="endArrow=classic;html=1;rounded=0;entryX=0.5;entryY=1;entryDx=0;entryDy=0;entryPerimeter=0;exitX=0.5;exitY=0;exitDx=0;exitDy=0;exitPerimeter=0;" parent="1" source="Eob51S2Rj65dCeD4cubW-23" target="Eob51S2Rj65dCeD4cubW-16" edge="1">
          <mxGeometry width="50" height="50" relative="1" as="geometry">
            <mxPoint x="-54" y="3" as="sourcePoint" />
            <mxPoint x="-4" y="-47" as="targetPoint" />
          </mxGeometry>
        </mxCell>
        <mxCell id="Eob51S2Rj65dCeD4cubW-27" value="" style="endArrow=classic;html=1;rounded=0;exitX=0.382;exitY=0.427;exitDx=0;exitDy=0;exitPerimeter=0;entryX=0.473;entryY=0.427;entryDx=0;entryDy=0;entryPerimeter=0;" parent="1" edge="1">
          <mxGeometry width="50" height="50" relative="1" as="geometry">
            <mxPoint x="-170.80999999999995" y="14.930000000000064" as="sourcePoint" />
            <mxPoint x="-121.21500000000015" y="14.930000000000064" as="targetPoint" />
          </mxGeometry>
        </mxCell>
        <mxCell id="Eob51S2Rj65dCeD4cubW-29" value="" style="sketch=0;outlineConnect=0;fontColor=#232F3E;gradientColor=none;fillColor=#232F3D;strokeColor=none;dashed=0;verticalLabelPosition=bottom;verticalAlign=top;align=center;html=1;fontSize=12;fontStyle=0;aspect=fixed;pointerEvents=1;shape=mxgraph.aws4.users;" parent="1" vertex="1">
          <mxGeometry x="-125" y="-295" width="37" height="37" as="geometry" />
        </mxCell>
        <mxCell id="Eob51S2Rj65dCeD4cubW-30" value="" style="endArrow=classic;html=1;rounded=0;" parent="1" source="Eob51S2Rj65dCeD4cubW-29" edge="1">
          <mxGeometry width="50" height="50" relative="1" as="geometry">
            <mxPoint x="-55" y="-211" as="sourcePoint" />
            <mxPoint x="-106" y="-221" as="targetPoint" />
          </mxGeometry>
        </mxCell>
        <mxCell id="Eob51S2Rj65dCeD4cubW-31" value="" style="endArrow=classic;html=1;rounded=0;entryX=0.292;entryY=0.747;entryDx=0;entryDy=0;entryPerimeter=0;" parent="1" edge="1">
          <mxGeometry width="50" height="50" relative="1" as="geometry">
            <mxPoint x="-265" y="204" as="sourcePoint" />
            <mxPoint x="-219.86000000000013" y="203.73000000000002" as="targetPoint" />
          </mxGeometry>
        </mxCell>
        <mxCell id="Eob51S2Rj65dCeD4cubW-32" value="Client Users" style="text;html=1;align=center;verticalAlign=middle;resizable=0;points=[];autosize=1;strokeColor=none;fillColor=none;" parent="1" vertex="1">
          <mxGeometry x="-147" y="-318" width="83" height="26" as="geometry" />
        </mxCell>
        <mxCell id="Eob51S2Rj65dCeD4cubW-33" value="Custom&amp;nbsp;&lt;br&gt;Route" style="image;html=1;image=img/lib/clip_art/networking/Router_Icon_128x128.png" parent="1" vertex="1">
          <mxGeometry x="-120" y="-6" width="39" height="44" as="geometry" />
        </mxCell>
        <mxCell id="Eob51S2Rj65dCeD4cubW-34" value="" style="endArrow=classic;html=1;rounded=0;entryX=1;entryY=0.5;entryDx=0;entryDy=0;" parent="1" edge="1">
          <mxGeometry width="50" height="50" relative="1" as="geometry">
            <mxPoint x="-20" y="15" as="sourcePoint" />
            <mxPoint x="-81" y="17" as="targetPoint" />
          </mxGeometry>
        </mxCell>
        <mxCell id="Eob51S2Rj65dCeD4cubW-35" value="" style="endArrow=classic;html=1;rounded=0;exitX=0.421;exitY=0.627;exitDx=0;exitDy=0;exitPerimeter=0;" parent="1" edge="1">
          <mxGeometry width="50" height="50" relative="1" as="geometry">
            <mxPoint x="-149.55500000000006" y="132.93000000000006" as="sourcePoint" />
            <mxPoint x="-97" y="27" as="targetPoint" />
          </mxGeometry>
        </mxCell>
        <mxCell id="Eob51S2Rj65dCeD4cubW-37" value="" style="endArrow=classic;html=1;rounded=0;entryX=0.508;entryY=0.232;entryDx=0;entryDy=0;entryPerimeter=0;" parent="1" edge="1">
          <mxGeometry width="50" height="50" relative="1" as="geometry">
            <mxPoint x="-100" y="4" as="sourcePoint" />
            <mxPoint x="-102.13999999999987" y="-100.12" as="targetPoint" />
          </mxGeometry>
        </mxCell>
        <mxCell id="Eob51S2Rj65dCeD4cubW-40" value="Default&lt;br&gt;Route" style="image;html=1;image=img/lib/clip_art/networking/Router_Icon_128x128.png" parent="1" vertex="1">
          <mxGeometry x="-322" y="-122" width="35" height="23" as="geometry" />
        </mxCell>
        <mxCell id="Eob51S2Rj65dCeD4cubW-43" value="" style="endArrow=classic;html=1;rounded=0;exitX=0.169;exitY=0.324;exitDx=0;exitDy=0;exitPerimeter=0;" parent="1" edge="1">
          <mxGeometry width="50" height="50" relative="1" as="geometry">
            <mxPoint x="-286.895" y="-45.84000000000003" as="sourcePoint" />
            <mxPoint x="-301" y="-101" as="targetPoint" />
          </mxGeometry>
        </mxCell>
        <mxCell id="Eob51S2Rj65dCeD4cubW-44" value="" style="endArrow=classic;html=1;rounded=0;exitX=1;exitY=0.5;exitDx=0;exitDy=0;entryX=0.466;entryY=0.207;entryDx=0;entryDy=0;entryPerimeter=0;" parent="1" source="Eob51S2Rj65dCeD4cubW-40" edge="1">
          <mxGeometry width="50" height="50" relative="1" as="geometry">
            <mxPoint x="-56" y="-2" as="sourcePoint" />
            <mxPoint x="-125.02999999999997" y="-114.87" as="targetPoint" />
          </mxGeometry>
        </mxCell>
        <mxCell id="Eob51S2Rj65dCeD4cubW-46" value="AWS Cloud" style="sketch=0;outlineConnect=0;gradientColor=none;html=1;whiteSpace=wrap;fontSize=12;fontStyle=0;shape=mxgraph.aws4.group;grIcon=mxgraph.aws4.group_aws_cloud;strokeColor=#FF8000;fillColor=none;verticalAlign=top;align=left;spacingLeft=30;fontColor=#AAB7B8;dashed=0;" parent="1" vertex="1">
          <mxGeometry x="-374" y="-241" width="537" height="576" as="geometry" />
        </mxCell>
      </root>
    </mxGraphModel>
  </diagram>
</mxfile>
